<svg width="257" height="13" viewBox="0 0 257 13" fill="none" xmlns="http://www.w3.org/2000/svg">
<path d="M5.23242 3.79492C4.74414 3.79492 4.36719 3.96484 4.10156 4.30469C3.83984 4.64453 3.70898 5.11523 3.70898 5.7168C3.70898 6.37305 3.83203 6.85938 4.07812 7.17578C4.32812 7.49219 4.70898 7.65039 5.2207 7.65039C5.55664 7.65039 5.96875 7.5625 6.45703 7.38672V8.11328C6.26953 8.19141 6.07617 8.25781 5.87695 8.3125C5.68164 8.36719 5.44727 8.39453 5.17383 8.39453C4.41602 8.39453 3.83398 8.16016 3.42773 7.69141C3.02148 7.21875 2.81836 6.56055 2.81836 5.7168C2.81836 4.90039 3.0332 4.25195 3.46289 3.77148C3.89648 3.29102 4.48633 3.05078 5.23242 3.05078C5.73242 3.05078 6.21289 3.16797 6.67383 3.40234L6.33398 4.09375C5.91211 3.89453 5.54492 3.79492 5.23242 3.79492ZM0.585938 5.7168C0.585938 4.93555 0.78125 4.20312 1.17188 3.51953C1.5625 2.83594 2.09961 2.29688 2.7832 1.90234C3.4668 1.50781 4.20312 1.31055 4.99219 1.31055C5.77344 1.31055 6.50586 1.50586 7.18945 1.89648C7.87305 2.28711 8.41211 2.82422 8.80664 3.50781C9.20117 4.19141 9.39844 4.92773 9.39844 5.7168C9.39844 6.48633 9.20898 7.20898 8.83008 7.88477C8.45117 8.56055 7.91992 9.10156 7.23633 9.50781C6.55273 9.91406 5.80469 10.1172 4.99219 10.1172C4.18359 10.1172 3.4375 9.91602 2.75391 9.51367C2.07031 9.10742 1.53711 8.56641 1.1543 7.89062C0.775391 7.21484 0.585938 6.49023 0.585938 5.7168ZM1.20117 5.7168C1.20117 6.39258 1.37109 7.02539 1.71094 7.61523C2.05078 8.20117 2.51367 8.66406 3.09961 9.00391C3.68945 9.33984 4.32031 9.50781 4.99219 9.50781C5.67188 9.50781 6.30273 9.33789 6.88477 8.99805C7.4668 8.6582 7.92773 8.19922 8.26758 7.62109C8.61133 7.03906 8.7832 6.4043 8.7832 5.7168C8.7832 5.03711 8.61328 4.40625 8.27344 3.82422C7.93359 3.24219 7.47266 2.78125 6.89062 2.44141C6.3125 2.09766 5.67969 1.92578 4.99219 1.92578C4.3125 1.92578 3.68164 2.0957 3.09961 2.43555C2.51758 2.77539 2.05469 3.23633 1.71094 3.81836C1.37109 4.39648 1.20117 5.0293 1.20117 5.7168ZM19.3184 10H13.6875V9.16211L15.9434 6.89453C16.6309 6.19922 17.084 5.70312 17.3027 5.40625C17.5215 5.10938 17.6855 4.82031 17.7949 4.53906C17.9043 4.25781 17.959 3.95508 17.959 3.63086C17.959 3.17383 17.8203 2.8125 17.543 2.54688C17.2656 2.27734 16.8809 2.14258 16.3887 2.14258C16.0332 2.14258 15.6953 2.20117 15.375 2.31836C15.0586 2.43555 14.7051 2.64844 14.3145 2.95703L13.7988 2.29492C14.5879 1.63867 15.4473 1.31055 16.377 1.31055C17.1816 1.31055 17.8125 1.51758 18.2695 1.93164C18.7266 2.3418 18.9551 2.89453 18.9551 3.58984C18.9551 4.13281 18.8027 4.66992 18.498 5.20117C18.1934 5.73242 17.623 6.4043 16.7871 7.2168L14.9121 9.05078V9.09766H19.3184V10ZM26.2324 5.70508C26.2324 7.18555 25.998 8.29102 25.5293 9.02148C25.0645 9.75195 24.3516 10.1172 23.3906 10.1172C22.4688 10.1172 21.7676 9.74414 21.2871 8.99805C20.8066 8.24805 20.5664 7.15039 20.5664 5.70508C20.5664 4.21289 20.7988 3.10547 21.2637 2.38281C21.7285 1.66016 22.4375 1.29883 23.3906 1.29883C24.3203 1.29883 25.0254 1.67578 25.5059 2.42969C25.9902 3.18359 26.2324 4.27539 26.2324 5.70508ZM21.5508 5.70508C21.5508 6.95117 21.6973 7.85938 21.9902 8.42969C22.2832 8.99609 22.75 9.2793 23.3906 9.2793C24.0391 9.2793 24.5078 8.99219 24.7969 8.41797C25.0898 7.83984 25.2363 6.93555 25.2363 5.70508C25.2363 4.47461 25.0898 3.57422 24.7969 3.00391C24.5078 2.42969 24.0391 2.14258 23.3906 2.14258C22.75 2.14258 22.2832 2.42578 21.9902 2.99219C21.6973 3.55469 21.5508 4.45898 21.5508 5.70508ZM31.0254 10H30.0762V3.89453C30.0762 3.38672 30.0918 2.90625 30.123 2.45312C30.041 2.53516 29.9492 2.62109 29.8477 2.71094C29.7461 2.80078 29.2812 3.18164 28.4531 3.85352L27.9375 3.18555L30.2051 1.43359H31.0254V10ZM39.9199 5.08984C39.9199 8.44141 38.623 10.1172 36.0293 10.1172C35.5762 10.1172 35.2168 10.0781 34.9512 10V9.16211C35.2637 9.26367 35.6191 9.31445 36.0176 9.31445C36.9551 9.31445 37.6621 9.02539 38.1387 8.44727C38.6191 7.86523 38.8809 6.97461 38.9238 5.77539H38.8535C38.6387 6.09961 38.3535 6.34766 37.998 6.51953C37.6426 6.6875 37.2422 6.77148 36.7969 6.77148C36.0391 6.77148 35.4375 6.54492 34.9922 6.0918C34.5469 5.63867 34.3242 5.00586 34.3242 4.19336C34.3242 3.30273 34.5723 2.59961 35.0684 2.08398C35.5684 1.56836 36.2246 1.31055 37.0371 1.31055C37.6191 1.31055 38.127 1.46094 38.5605 1.76172C38.998 2.05859 39.334 2.49414 39.5684 3.06836C39.8027 3.63867 39.9199 4.3125 39.9199 5.08984ZM37.0371 2.14258C36.4785 2.14258 36.0469 2.32227 35.7422 2.68164C35.4375 3.04102 35.2852 3.54102 35.2852 4.18164C35.2852 4.74414 35.4258 5.1875 35.707 5.51172C35.9883 5.83203 36.416 5.99219 36.9902 5.99219C37.3457 5.99219 37.6719 5.91992 37.9688 5.77539C38.2695 5.63086 38.5059 5.43359 38.6777 5.18359C38.8496 4.93359 38.9355 4.67188 38.9355 4.39844C38.9355 3.98828 38.8555 3.60938 38.6953 3.26172C38.5352 2.91406 38.3105 2.64062 38.0215 2.44141C37.7363 2.24219 37.4082 2.14258 37.0371 2.14258ZM51.7031 5.63477C51.7031 7.04883 51.3184 8.13086 50.5488 8.88086C49.7832 9.62695 48.6797 10 47.2383 10H44.8652V1.43359H47.4902C48.8223 1.43359 49.8574 1.80273 50.5957 2.54102C51.334 3.2793 51.7031 4.31055 51.7031 5.63477ZM50.6484 5.66992C50.6484 4.55273 50.3672 3.71094 49.8047 3.14453C49.2461 2.57812 48.4141 2.29492 47.3086 2.29492H45.8613V9.13867H47.0742C48.2617 9.13867 49.1543 8.84766 49.752 8.26562C50.3496 7.67969 50.6484 6.81445 50.6484 5.66992ZM54.4453 10H53.4727V3.57812H54.4453V10ZM53.3906 1.83789C53.3906 1.61523 53.4453 1.45312 53.5547 1.35156C53.6641 1.24609 53.8008 1.19336 53.9648 1.19336C54.1211 1.19336 54.2559 1.24609 54.3691 1.35156C54.4824 1.45703 54.5391 1.61914 54.5391 1.83789C54.5391 2.05664 54.4824 2.2207 54.3691 2.33008C54.2559 2.43555 54.1211 2.48828 53.9648 2.48828C53.8008 2.48828 53.6641 2.43555 53.5547 2.33008C53.4453 2.2207 53.3906 2.05664 53.3906 1.83789ZM61.7637 3.57812V4.19336L60.5742 4.33398C60.6836 4.4707 60.7812 4.65039 60.8672 4.87305C60.9531 5.0918 60.9961 5.33984 60.9961 5.61719C60.9961 6.24609 60.7812 6.74805 60.3516 7.12305C59.9219 7.49805 59.332 7.68555 58.582 7.68555C58.3906 7.68555 58.2109 7.66992 58.043 7.63867C57.6289 7.85742 57.4219 8.13281 57.4219 8.46484C57.4219 8.64062 57.4941 8.77148 57.6387 8.85742C57.7832 8.93945 58.0312 8.98047 58.3828 8.98047H59.5195C60.2148 8.98047 60.748 9.12695 61.1191 9.41992C61.4941 9.71289 61.6816 10.1387 61.6816 10.6973C61.6816 11.4082 61.3965 11.9492 60.8262 12.3203C60.2559 12.6953 59.4238 12.8828 58.3301 12.8828C57.4902 12.8828 56.8418 12.7266 56.3848 12.4141C55.9316 12.1016 55.7051 11.6602 55.7051 11.0898C55.7051 10.6992 55.8301 10.3613 56.0801 10.0762C56.3301 9.79102 56.6816 9.59766 57.1348 9.49609C56.9707 9.42188 56.832 9.30664 56.7188 9.15039C56.6094 8.99414 56.5547 8.8125 56.5547 8.60547C56.5547 8.37109 56.6172 8.16602 56.7422 7.99023C56.8672 7.81445 57.0645 7.64453 57.334 7.48047C57.002 7.34375 56.7305 7.11133 56.5195 6.7832C56.3125 6.45508 56.209 6.08008 56.209 5.6582C56.209 4.95508 56.4199 4.41406 56.8418 4.03516C57.2637 3.65234 57.8613 3.46094 58.6348 3.46094C58.9707 3.46094 59.2734 3.5 59.543 3.57812H61.7637ZM56.6426 11.0781C56.6426 11.4258 56.7891 11.6895 57.082 11.8691C57.375 12.0488 57.7949 12.1387 58.3418 12.1387C59.1582 12.1387 59.7617 12.0156 60.1523 11.7695C60.5469 11.5273 60.7441 11.1973 60.7441 10.7793C60.7441 10.4316 60.6367 10.1895 60.4219 10.0527C60.207 9.91992 59.8027 9.85352 59.209 9.85352H58.043C57.6016 9.85352 57.2578 9.95898 57.0117 10.1699C56.7656 10.3809 56.6426 10.6836 56.6426 11.0781ZM57.1699 5.63477C57.1699 6.08398 57.2969 6.42383 57.5508 6.6543C57.8047 6.88477 58.1582 7 58.6113 7C59.5605 7 60.0352 6.53906 60.0352 5.61719C60.0352 4.65234 59.5547 4.16992 58.5938 4.16992C58.1367 4.16992 57.7852 4.29297 57.5391 4.53906C57.293 4.78516 57.1699 5.15039 57.1699 5.63477ZM64.0547 10H63.082V3.57812H64.0547V10ZM63 1.83789C63 1.61523 63.0547 1.45312 63.1641 1.35156C63.2734 1.24609 63.4102 1.19336 63.5742 1.19336C63.7305 1.19336 63.8652 1.24609 63.9785 1.35156C64.0918 1.45703 64.1484 1.61914 64.1484 1.83789C64.1484 2.05664 64.0918 2.2207 63.9785 2.33008C63.8652 2.43555 63.7305 2.48828 63.5742 2.48828C63.4102 2.48828 63.2734 2.43555 63.1641 2.33008C63.0547 2.2207 63 2.05664 63 1.83789ZM68.1914 9.31445C68.3633 9.31445 68.5293 9.30273 68.6895 9.2793C68.8496 9.25195 68.9766 9.22461 69.0703 9.19727V9.94141C68.9648 9.99219 68.8086 10.0332 68.6016 10.0645C68.3984 10.0996 68.2148 10.1172 68.0508 10.1172C66.8086 10.1172 66.1875 9.46289 66.1875 8.1543V4.33398H65.2676V3.86523L66.1875 3.46094L66.5977 2.08984H67.1602V3.57812H69.0234V4.33398H67.1602V8.11328C67.1602 8.5 67.252 8.79688 67.4355 9.00391C67.6191 9.21094 67.8711 9.31445 68.1914 9.31445ZM74.3086 10L74.1152 9.08594H74.0684C73.748 9.48828 73.4277 9.76172 73.1074 9.90625C72.791 10.0469 72.3945 10.1172 71.918 10.1172C71.2812 10.1172 70.7812 9.95312 70.418 9.625C70.0586 9.29688 69.8789 8.83008 69.8789 8.22461C69.8789 6.92773 70.916 6.24805 72.9902 6.18555L74.0801 6.15039V5.75195C74.0801 5.24805 73.9707 4.87695 73.752 4.63867C73.5371 4.39648 73.1914 4.27539 72.7148 4.27539C72.1797 4.27539 71.5742 4.43945 70.8984 4.76758L70.5996 4.02344C70.916 3.85156 71.2617 3.7168 71.6367 3.61914C72.0156 3.52148 72.3945 3.47266 72.7734 3.47266C73.5391 3.47266 74.1055 3.64258 74.4727 3.98242C74.8438 4.32227 75.0293 4.86719 75.0293 5.61719V10H74.3086ZM72.1113 9.31445C72.7168 9.31445 73.1914 9.14844 73.5352 8.81641C73.8828 8.48438 74.0566 8.01953 74.0566 7.42188V6.8418L73.084 6.88281C72.3105 6.91016 71.752 7.03125 71.4082 7.24609C71.0684 7.45703 70.8984 7.78711 70.8984 8.23633C70.8984 8.58789 71.0039 8.85547 71.2148 9.03906C71.4297 9.22266 71.7285 9.31445 72.1113 9.31445ZM78.0117 10H77.0391V0.882812H78.0117V10ZM88.7695 3.92969C88.7695 4.79688 88.4727 5.46484 87.8789 5.93359C87.2891 6.39844 86.4434 6.63086 85.3418 6.63086H84.334V10H83.3379V1.43359H85.5586C87.6992 1.43359 88.7695 2.26562 88.7695 3.92969ZM84.334 5.77539H85.2305C86.1133 5.77539 86.752 5.63281 87.1465 5.34766C87.541 5.0625 87.7383 4.60547 87.7383 3.97656C87.7383 3.41016 87.5527 2.98828 87.1816 2.71094C86.8105 2.43359 86.2324 2.29492 85.4473 2.29492H84.334V5.77539ZM93.3516 3.46094C93.6367 3.46094 93.8926 3.48438 94.1191 3.53125L93.9844 4.43359C93.7188 4.375 93.4844 4.3457 93.2812 4.3457C92.7617 4.3457 92.3164 4.55664 91.9453 4.97852C91.5781 5.40039 91.3945 5.92578 91.3945 6.55469V10H90.4219V3.57812H91.2246L91.3359 4.76758H91.3828C91.6211 4.34961 91.9082 4.02734 92.2441 3.80078C92.5801 3.57422 92.9492 3.46094 93.3516 3.46094ZM100.863 6.7832C100.863 7.83008 100.6 8.64844 100.072 9.23828C99.5449 9.82422 98.8164 10.1172 97.8867 10.1172C97.3125 10.1172 96.8027 9.98242 96.3574 9.71289C95.9121 9.44336 95.5684 9.05664 95.3262 8.55273C95.084 8.04883 94.9629 7.45898 94.9629 6.7832C94.9629 5.73633 95.2246 4.92188 95.748 4.33984C96.2715 3.75391 96.998 3.46094 97.9277 3.46094C98.8262 3.46094 99.5391 3.75977 100.066 4.35742C100.598 4.95508 100.863 5.76367 100.863 6.7832ZM95.9707 6.7832C95.9707 7.60352 96.1348 8.22852 96.4629 8.6582C96.791 9.08789 97.2734 9.30273 97.9102 9.30273C98.5469 9.30273 99.0293 9.08984 99.3574 8.66406C99.6895 8.23438 99.8555 7.60742 99.8555 6.7832C99.8555 5.9668 99.6895 5.34766 99.3574 4.92578C99.0293 4.5 98.543 4.28711 97.8984 4.28711C97.2617 4.28711 96.7812 4.49609 96.457 4.91406C96.1328 5.33203 95.9707 5.95508 95.9707 6.7832ZM101.795 12.8828C101.424 12.8828 101.123 12.834 100.893 12.7363V11.9453C101.162 12.0234 101.428 12.0625 101.689 12.0625C101.994 12.0625 102.217 11.9785 102.357 11.8105C102.502 11.6465 102.574 11.3945 102.574 11.0547V3.57812H103.547V10.9844C103.547 12.25 102.963 12.8828 101.795 12.8828ZM102.492 1.83789C102.492 1.61523 102.547 1.45312 102.656 1.35156C102.766 1.24609 102.902 1.19336 103.066 1.19336C103.223 1.19336 103.357 1.24609 103.471 1.35156C103.584 1.45703 103.641 1.61914 103.641 1.83789C103.641 2.05664 103.584 2.2207 103.471 2.33008C103.357 2.43555 103.223 2.48828 103.066 2.48828C102.902 2.48828 102.766 2.43555 102.656 2.33008C102.547 2.2207 102.492 2.05664 102.492 1.83789ZM108.322 10.1172C107.373 10.1172 106.623 9.82812 106.072 9.25C105.525 8.67188 105.252 7.86914 105.252 6.8418C105.252 5.80664 105.506 4.98438 106.014 4.375C106.525 3.76562 107.211 3.46094 108.07 3.46094C108.875 3.46094 109.512 3.72656 109.98 4.25781C110.449 4.78516 110.684 5.48242 110.684 6.34961V6.96484H106.26C106.279 7.71875 106.469 8.29102 106.828 8.68164C107.191 9.07227 107.701 9.26758 108.357 9.26758C109.049 9.26758 109.732 9.12305 110.408 8.83398V9.70117C110.064 9.84961 109.738 9.95508 109.43 10.0176C109.125 10.084 108.756 10.1172 108.322 10.1172ZM108.059 4.27539C107.543 4.27539 107.131 4.44336 106.822 4.7793C106.518 5.11523 106.338 5.58008 106.283 6.17383H109.641C109.641 5.56055 109.504 5.0918 109.23 4.76758C108.957 4.43945 108.566 4.27539 108.059 4.27539ZM114.914 10.1172C113.984 10.1172 113.264 9.83203 112.752 9.26172C112.244 8.6875 111.99 7.87695 111.99 6.83008C111.99 5.75586 112.248 4.92578 112.764 4.33984C113.283 3.75391 114.021 3.46094 114.979 3.46094C115.287 3.46094 115.596 3.49414 115.904 3.56055C116.213 3.62695 116.455 3.70508 116.631 3.79492L116.332 4.62109C116.117 4.53516 115.883 4.46484 115.629 4.41016C115.375 4.35156 115.15 4.32227 114.955 4.32227C113.65 4.32227 112.998 5.1543 112.998 6.81836C112.998 7.60742 113.156 8.21289 113.473 8.63477C113.793 9.05664 114.266 9.26758 114.891 9.26758C115.426 9.26758 115.975 9.15234 116.537 8.92188V9.7832C116.107 10.0059 115.566 10.1172 114.914 10.1172ZM120.141 9.31445C120.312 9.31445 120.479 9.30273 120.639 9.2793C120.799 9.25195 120.926 9.22461 121.02 9.19727V9.94141C120.914 9.99219 120.758 10.0332 120.551 10.0645C120.348 10.0996 120.164 10.1172 120 10.1172C118.758 10.1172 118.137 9.46289 118.137 8.1543V4.33398H117.217V3.86523L118.137 3.46094L118.547 2.08984H119.109V3.57812H120.973V4.33398H119.109V8.11328C119.109 8.5 119.201 8.79688 119.385 9.00391C119.568 9.21094 119.82 9.31445 120.141 9.31445ZM122.168 9.37891C122.168 9.11719 122.227 8.91992 122.344 8.78711C122.465 8.65039 122.637 8.58203 122.859 8.58203C123.086 8.58203 123.262 8.65039 123.387 8.78711C123.516 8.91992 123.58 9.11719 123.58 9.37891C123.58 9.63281 123.516 9.82812 123.387 9.96484C123.258 10.1016 123.082 10.1699 122.859 10.1699C122.66 10.1699 122.494 10.1094 122.361 9.98828C122.232 9.86328 122.168 9.66016 122.168 9.37891ZM128.771 1.43359H131.191C132.328 1.43359 133.15 1.60352 133.658 1.94336C134.166 2.2832 134.42 2.82031 134.42 3.55469C134.42 4.0625 134.277 4.48242 133.992 4.81445C133.711 5.14258 133.299 5.35547 132.756 5.45312V5.51172C134.057 5.73438 134.707 6.41797 134.707 7.5625C134.707 8.32812 134.447 8.92578 133.928 9.35547C133.412 9.78516 132.689 10 131.76 10H128.771V1.43359ZM129.768 5.10156H131.408C132.111 5.10156 132.617 4.99219 132.926 4.77344C133.234 4.55078 133.389 4.17773 133.389 3.6543C133.389 3.17383 133.217 2.82812 132.873 2.61719C132.529 2.40234 131.982 2.29492 131.232 2.29492H129.768V5.10156ZM129.768 5.94531V9.15039H131.555C132.246 9.15039 132.766 9.01758 133.113 8.75195C133.465 8.48242 133.641 8.0625 133.641 7.49219C133.641 6.96094 133.461 6.57031 133.102 6.32031C132.746 6.07031 132.203 5.94531 131.473 5.94531H129.768ZM138.973 10.1172C138.043 10.1172 137.322 9.83203 136.811 9.26172C136.303 8.6875 136.049 7.87695 136.049 6.83008C136.049 5.75586 136.307 4.92578 136.822 4.33984C137.342 3.75391 138.08 3.46094 139.037 3.46094C139.346 3.46094 139.654 3.49414 139.963 3.56055C140.271 3.62695 140.514 3.70508 140.689 3.79492L140.391 4.62109C140.176 4.53516 139.941 4.46484 139.688 4.41016C139.434 4.35156 139.209 4.32227 139.014 4.32227C137.709 4.32227 137.057 5.1543 137.057 6.81836C137.057 7.60742 137.215 8.21289 137.531 8.63477C137.852 9.05664 138.324 9.26758 138.949 9.26758C139.484 9.26758 140.033 9.15234 140.596 8.92188V9.7832C140.166 10.0059 139.625 10.1172 138.973 10.1172ZM144.838 10.1172C143.889 10.1172 143.139 9.82812 142.588 9.25C142.041 8.67188 141.768 7.86914 141.768 6.8418C141.768 5.80664 142.021 4.98438 142.529 4.375C143.041 3.76562 143.727 3.46094 144.586 3.46094C145.391 3.46094 146.027 3.72656 146.496 4.25781C146.965 4.78516 147.199 5.48242 147.199 6.34961V6.96484H142.775C142.795 7.71875 142.984 8.29102 143.344 8.68164C143.707 9.07227 144.217 9.26758 144.873 9.26758C145.564 9.26758 146.248 9.12305 146.924 8.83398V9.70117C146.58 9.84961 146.254 9.95508 145.945 10.0176C145.641 10.084 145.271 10.1172 144.838 10.1172ZM144.574 4.27539C144.059 4.27539 143.646 4.44336 143.338 4.7793C143.033 5.11523 142.854 5.58008 142.799 6.17383H146.156C146.156 5.56055 146.02 5.0918 145.746 4.76758C145.473 4.43945 145.082 4.27539 144.574 4.27539ZM152.953 10H151.98V3.57812H157.371V10H156.387V4.42188H152.953V10ZM162.422 10.1172C162.004 10.1172 161.621 10.041 161.273 9.88867C160.93 9.73242 160.641 9.49414 160.406 9.17383H160.336C160.383 9.54883 160.406 9.9043 160.406 10.2402V12.8828H159.434V3.57812H160.225L160.359 4.45703H160.406C160.656 4.10547 160.947 3.85156 161.279 3.69531C161.611 3.53906 161.992 3.46094 162.422 3.46094C163.273 3.46094 163.93 3.75195 164.391 4.33398C164.855 4.91602 165.088 5.73242 165.088 6.7832C165.088 7.83789 164.852 8.6582 164.379 9.24414C163.91 9.82617 163.258 10.1172 162.422 10.1172ZM162.281 4.28711C161.625 4.28711 161.15 4.46875 160.857 4.83203C160.564 5.19531 160.414 5.77344 160.406 6.56641V6.7832C160.406 7.68555 160.557 8.33203 160.857 8.72266C161.158 9.10938 161.641 9.30273 162.305 9.30273C162.859 9.30273 163.293 9.07812 163.605 8.62891C163.922 8.17969 164.08 7.56055 164.08 6.77148C164.08 5.9707 163.922 5.35742 163.605 4.93164C163.293 4.50195 162.852 4.28711 162.281 4.28711ZM170.742 10L170.549 9.08594H170.502C170.182 9.48828 169.861 9.76172 169.541 9.90625C169.225 10.0469 168.828 10.1172 168.352 10.1172C167.715 10.1172 167.215 9.95312 166.852 9.625C166.492 9.29688 166.312 8.83008 166.312 8.22461C166.312 6.92773 167.35 6.24805 169.424 6.18555L170.514 6.15039V5.75195C170.514 5.24805 170.404 4.87695 170.186 4.63867C169.971 4.39648 169.625 4.27539 169.148 4.27539C168.613 4.27539 168.008 4.43945 167.332 4.76758L167.033 4.02344C167.35 3.85156 167.695 3.7168 168.07 3.61914C168.449 3.52148 168.828 3.47266 169.207 3.47266C169.973 3.47266 170.539 3.64258 170.906 3.98242C171.277 4.32227 171.463 4.86719 171.463 5.61719V10H170.742ZM168.545 9.31445C169.15 9.31445 169.625 9.14844 169.969 8.81641C170.316 8.48438 170.49 8.01953 170.49 7.42188V6.8418L169.518 6.88281C168.744 6.91016 168.186 7.03125 167.842 7.24609C167.502 7.45703 167.332 7.78711 167.332 8.23633C167.332 8.58789 167.438 8.85547 167.648 9.03906C167.863 9.22266 168.162 9.31445 168.545 9.31445ZM178.682 5.18945C178.682 5.60742 178.561 5.92578 178.318 6.14453C178.08 6.35938 177.744 6.50391 177.311 6.57812V6.63086C177.857 6.70508 178.256 6.86523 178.506 7.11133C178.76 7.35742 178.887 7.69727 178.887 8.13086C178.887 8.72852 178.666 9.18945 178.225 9.51367C177.787 9.83789 177.146 10 176.303 10H173.473V3.57812H176.291C177.885 3.57812 178.682 4.11523 178.682 5.18945ZM177.914 8.06641C177.914 7.71875 177.781 7.4668 177.516 7.31055C177.254 7.15039 176.818 7.07031 176.209 7.07031H174.445V9.18555H176.232C177.354 9.18555 177.914 8.8125 177.914 8.06641ZM177.732 5.2832C177.732 4.9707 177.611 4.75 177.369 4.62109C177.131 4.48828 176.768 4.42188 176.279 4.42188H174.445V6.23242H176.092C176.693 6.23242 177.117 6.1582 177.363 6.00977C177.609 5.86133 177.732 5.61914 177.732 5.2832ZM184.254 10L184.061 9.08594H184.014C183.693 9.48828 183.373 9.76172 183.053 9.90625C182.736 10.0469 182.34 10.1172 181.863 10.1172C181.227 10.1172 180.727 9.95312 180.363 9.625C180.004 9.29688 179.824 8.83008 179.824 8.22461C179.824 6.92773 180.861 6.24805 182.936 6.18555L184.025 6.15039V5.75195C184.025 5.24805 183.916 4.87695 183.697 4.63867C183.482 4.39648 183.137 4.27539 182.66 4.27539C182.125 4.27539 181.52 4.43945 180.844 4.76758L180.545 4.02344C180.861 3.85156 181.207 3.7168 181.582 3.61914C181.961 3.52148 182.34 3.47266 182.719 3.47266C183.484 3.47266 184.051 3.64258 184.418 3.98242C184.789 4.32227 184.975 4.86719 184.975 5.61719V10H184.254ZM182.057 9.31445C182.662 9.31445 183.137 9.14844 183.48 8.81641C183.828 8.48438 184.002 8.01953 184.002 7.42188V6.8418L183.029 6.88281C182.256 6.91016 181.697 7.03125 181.354 7.24609C181.014 7.45703 180.844 7.78711 180.844 8.23633C180.844 8.58789 180.949 8.85547 181.16 9.03906C181.375 9.22266 181.674 9.31445 182.057 9.31445ZM191.326 6.24414C192.541 6.24414 193.148 5.9082 193.148 5.23633C193.148 4.60352 192.656 4.28711 191.672 4.28711C191.371 4.28711 191.098 4.31445 190.852 4.36914C190.605 4.42383 190.283 4.5332 189.885 4.69727L189.539 3.90625C190.203 3.60938 190.928 3.46094 191.713 3.46094C192.451 3.46094 193.033 3.61328 193.459 3.91797C193.885 4.21875 194.098 4.63086 194.098 5.1543C194.098 5.87305 193.697 6.34375 192.896 6.56641V6.61328C193.389 6.75781 193.748 6.96484 193.975 7.23438C194.201 7.5 194.314 7.83398 194.314 8.23633C194.314 8.83008 194.074 9.29297 193.594 9.625C193.117 9.95312 192.457 10.1172 191.613 10.1172C190.688 10.1172 189.973 9.97852 189.469 9.70117V8.81055C190.184 9.14648 190.906 9.31445 191.637 9.31445C192.199 9.31445 192.623 9.21875 192.908 9.02734C193.197 8.83203 193.342 8.55273 193.342 8.18945C193.342 7.44336 192.734 7.07031 191.52 7.07031H190.629V6.24414H191.326ZM199.852 10L199.658 9.08594H199.611C199.291 9.48828 198.971 9.76172 198.65 9.90625C198.334 10.0469 197.938 10.1172 197.461 10.1172C196.824 10.1172 196.324 9.95312 195.961 9.625C195.602 9.29688 195.422 8.83008 195.422 8.22461C195.422 6.92773 196.459 6.24805 198.533 6.18555L199.623 6.15039V5.75195C199.623 5.24805 199.514 4.87695 199.295 4.63867C199.08 4.39648 198.734 4.27539 198.258 4.27539C197.723 4.27539 197.117 4.43945 196.441 4.76758L196.143 4.02344C196.459 3.85156 196.805 3.7168 197.18 3.61914C197.559 3.52148 197.938 3.47266 198.316 3.47266C199.082 3.47266 199.648 3.64258 200.016 3.98242C200.387 4.32227 200.572 4.86719 200.572 5.61719V10H199.852ZM197.654 9.31445C198.26 9.31445 198.734 9.14844 199.078 8.81641C199.426 8.48438 199.6 8.01953 199.6 7.42188V6.8418L198.627 6.88281C197.854 6.91016 197.295 7.03125 196.951 7.24609C196.611 7.45703 196.441 7.78711 196.441 8.23633C196.441 8.58789 196.547 8.85547 196.758 9.03906C196.973 9.22266 197.271 9.31445 197.654 9.31445ZM207.369 9.16211H210.217V3.58984H211.189V9.16211H212.109V12.209H211.125V10H202.582V3.58984H203.555V9.16211H206.396V3.58984H207.369V9.16211ZM214.266 3.57812V7.65039L214.225 8.7168L214.207 9.05078L217.682 3.57812H218.895V10H217.986V6.07422L218.004 5.30078L218.033 4.53906L214.564 10H213.352V3.57812H214.266ZM225.744 9.16211H228.592V3.58984H229.564V9.16211H230.484V12.209H229.5V10H220.957V3.58984H221.93V9.16211H224.771V3.58984H225.744V9.16211ZM234.439 10.1172C233.49 10.1172 232.74 9.82812 232.189 9.25C231.643 8.67188 231.369 7.86914 231.369 6.8418C231.369 5.80664 231.623 4.98438 232.131 4.375C232.643 3.76562 233.328 3.46094 234.188 3.46094C234.992 3.46094 235.629 3.72656 236.098 4.25781C236.566 4.78516 236.801 5.48242 236.801 6.34961V6.96484H232.377C232.396 7.71875 232.586 8.29102 232.945 8.68164C233.309 9.07227 233.818 9.26758 234.475 9.26758C235.166 9.26758 235.85 9.12305 236.525 8.83398V9.70117C236.182 9.84961 235.855 9.95508 235.547 10.0176C235.242 10.084 234.873 10.1172 234.439 10.1172ZM234.176 4.27539C233.66 4.27539 233.248 4.44336 232.939 4.7793C232.635 5.11523 232.455 5.58008 232.4 6.17383H235.758C235.758 5.56055 235.621 5.0918 235.348 4.76758C235.074 4.43945 234.684 4.27539 234.176 4.27539ZM239.438 3.57812V6.26758H243.035V3.57812H244.008V10H243.035V7.10547H239.438V10H238.465V3.57812H239.438ZM247.043 6.23242H248.795C249.611 6.23242 250.215 6.38477 250.605 6.68945C251 6.99023 251.197 7.44141 251.197 8.04297C251.197 8.6875 250.988 9.17578 250.57 9.50781C250.156 9.83594 249.545 10 248.736 10H246.07V3.57812H247.043V6.23242ZM253.248 10H252.275V3.57812H253.248V10ZM247.043 7.07031V9.18555H248.689C249.721 9.18555 250.236 8.82422 250.236 8.10156C250.236 7.74219 250.117 7.48047 249.879 7.31641C249.641 7.15234 249.234 7.07031 248.66 7.07031H247.043ZM255.176 9.37891C255.176 9.11719 255.234 8.91992 255.352 8.78711C255.473 8.65039 255.645 8.58203 255.867 8.58203C256.094 8.58203 256.27 8.65039 256.395 8.78711C256.523 8.91992 256.588 9.11719 256.588 9.37891C256.588 9.63281 256.523 9.82812 256.395 9.96484C256.266 10.1016 256.09 10.1699 255.867 10.1699C255.668 10.1699 255.502 10.1094 255.369 9.98828C255.24 9.86328 255.176 9.66016 255.176 9.37891Z" fill="#C8C8C8" fill-opacity="0.5"/>
</svg>
